<svg version="1.1" id="Layer_1" xmlns="http://www.w3.org/2000/svg" xmlns:xlink="http://www.w3.org/1999/xlink" x="0px" y="0px"
	 width="100%" viewBox="0 0 225 225" enable-background="new 0 0 225 225" xml:space="preserve">
<path fill="#000000" opacity="1.000000" stroke="none" 
	d="
M133.000000,226.000000 
	C88.666672,226.000000 44.833340,226.000000 1.000006,226.000000 
	C1.000004,151.000000 1.000004,76.000015 1.000002,1.000016 
	C75.999992,1.000011 150.999985,1.000011 225.999969,1.000005 
	C225.999985,75.999985 225.999985,150.999969 226.000000,225.999969 
	C195.166672,226.000000 164.333328,226.000000 133.000000,226.000000 
M97.009377,21.502602 
	C89.675690,25.002928 82.361282,28.544367 75.004128,31.994658 
	C61.483131,38.335609 47.926926,44.601517 34.407383,50.945553 
	C30.334532,52.856728 27.694687,55.581238 27.918518,60.671162 
	C28.126654,65.404129 30.764023,67.477570 34.613979,69.279602 
	C57.719242,80.094330 80.876404,90.811905 103.740578,102.119324 
	C110.278847,105.352806 115.894806,105.448120 122.240341,102.420135 
	C145.048599,91.536484 167.931595,80.809143 190.808960,70.070900 
	C194.915039,68.143585 197.965378,65.686737 198.034775,60.605869 
	C198.104507,55.500267 195.106812,52.934502 191.002975,51.003452 
	C166.820770,39.624580 142.713654,28.080942 118.383034,17.029171 
	C115.358833,15.655480 111.053505,16.322443 107.539635,17.028433 
	C104.107788,17.717943 100.929283,19.668404 97.009377,21.502602 
M93.651711,132.938934 
	C98.819763,135.304611 103.900238,137.899857 109.199547,139.921463 
	C111.280464,140.715302 114.074486,140.885971 116.152634,140.183441 
	C120.580688,138.686523 124.763618,136.456039 129.027771,134.484543 
	C137.262665,130.677200 145.494888,126.863777 153.708908,123.011681 
	C167.202515,116.683640 180.727615,110.419464 194.136292,103.915680 
	C198.062393,102.011345 199.550385,95.895607 197.568024,92.031853 
	C195.249771,87.513359 189.655472,85.087944 185.494293,86.952805 
	C176.902924,90.803055 168.323227,94.682228 159.795197,98.670288 
	C145.962677,105.138969 132.206467,111.771767 118.338676,118.163094 
	C116.047897,119.218849 113.072121,120.386017 110.903595,119.771141 
	C106.610207,118.553757 102.660255,116.126228 98.567039,114.201706 
	C79.950829,105.448906 61.382038,96.591995 42.663673,88.063377 
	C39.997082,86.848404 36.393898,86.377930 33.598019,87.070976 
	C29.595585,88.063118 27.964136,91.556183 27.957388,95.854210 
	C27.950390,100.312874 30.575548,103.244301 33.903072,104.841179 
	C53.515839,114.253349 73.293289,123.322342 93.651711,132.938934 
M193.017151,158.512390 
	C187.617630,156.300079 182.924820,158.815796 178.330521,160.976074 
	C157.423218,170.806778 136.602615,180.822067 115.680061,190.619827 
	C114.216972,191.304977 111.897682,191.372253 110.452698,190.701309 
	C92.963509,182.580750 75.569862,174.254654 58.137409,166.011520 
	C52.871155,163.521317 47.582825,161.075348 42.266529,158.694107 
	C36.916378,156.297714 31.072094,157.987701 28.878286,162.461334 
	C26.566563,167.175430 28.470116,172.920227 33.481995,175.739304 
	C35.297794,176.760635 37.440525,177.181870 39.336876,178.081757 
	C59.626907,187.709839 79.855003,197.469711 100.197624,206.984924 
	C106.796326,210.071442 112.895157,213.818451 121.209488,209.657486 
	C144.700455,197.901276 168.614838,186.984299 192.457901,175.942932 
	C199.096878,172.868530 200.868073,163.840881 193.017151,158.512390 
M193.812027,123.319771 
	C190.369980,123.281342 186.555756,122.259613 183.557755,123.394371 
	C175.524368,126.435043 167.815292,130.345596 160.023560,134.008835 
	C145.889969,140.653641 131.833786,147.465790 117.630386,153.956650 
	C115.394753,154.978302 112.077454,155.735214 110.070618,154.826019 
	C92.499794,146.865295 75.120926,138.481567 57.667267,130.261185 
	C52.242928,127.706413 46.790058,125.208336 41.302555,122.792656 
	C35.938122,120.431160 31.249920,122.244942 28.903009,127.441803 
	C26.690115,132.341919 28.617306,137.921066 33.088959,139.987839 
	C46.507153,146.189682 59.900139,152.446198 73.293709,158.701187 
	C84.935509,164.138077 96.481819,169.793076 108.264709,174.903503 
	C110.826080,176.014404 114.683304,176.252960 117.150696,175.138184 
	C142.123810,163.855286 166.947021,152.239578 191.778214,140.644272 
	C200.151550,136.734222 200.185104,128.889404 193.812027,123.319771 
z"/>
<path fill="#9837FF" opacity="1.000000" stroke="none" 
	d="
M97.324471,21.283962 
	C100.929283,19.668404 104.107788,17.717943 107.539635,17.028433 
	C111.053505,16.322443 115.358833,15.655480 118.383034,17.029171 
	C142.713654,28.080942 166.820770,39.624580 191.002975,51.003452 
	C195.106812,52.934502 198.104507,55.500267 198.034775,60.605869 
	C197.965378,65.686737 194.915039,68.143585 190.808960,70.070900 
	C167.931595,80.809143 145.048599,91.536484 122.240341,102.420135 
	C115.894806,105.448120 110.278847,105.352806 103.740578,102.119324 
	C80.876404,90.811905 57.719242,80.094330 34.613979,69.279602 
	C30.764023,67.477570 28.126654,65.404129 27.918518,60.671162 
	C27.694687,55.581238 30.334532,52.856728 34.407383,50.945553 
	C47.926926,44.601517 61.483131,38.335609 75.004128,31.994658 
	C82.361282,28.544367 89.675690,25.002928 97.324471,21.283962 
M138.385788,47.064140 
	C131.027161,43.610699 123.721153,40.035980 116.267143,36.802406 
	C114.708031,36.126060 112.341286,36.116905 110.791069,36.803532 
	C98.350777,42.313641 85.997482,48.022335 73.661613,53.764858 
	C69.393791,55.751598 65.250275,58.005371 59.924679,60.708302 
	C64.893791,62.849613 68.630234,64.335625 72.260635,66.046654 
	C84.869843,71.989418 97.415176,78.068855 110.067894,83.916519 
	C111.427711,84.544983 113.570381,84.530807 114.943710,83.912514 
	C125.909859,78.975380 136.773926,73.811821 147.677826,68.736000 
	C153.656708,65.952805 159.652130,63.205109 166.192795,60.186310 
	C156.896210,55.848186 147.956070,51.676388 138.385788,47.064140 
z"/>
<path fill="#9837FF" opacity="1.000000" stroke="none" 
	d="
M93.333496,132.722931 
	C73.293289,123.322342 53.515839,114.253349 33.903072,104.841179 
	C30.575548,103.244301 27.950390,100.312874 27.957388,95.854210 
	C27.964136,91.556183 29.595585,88.063118 33.598019,87.070976 
	C36.393898,86.377930 39.997082,86.848404 42.663673,88.063377 
	C61.382038,96.591995 79.950829,105.448906 98.567039,114.201706 
	C102.660255,116.126228 106.610207,118.553757 110.903595,119.771141 
	C113.072121,120.386017 116.047897,119.218849 118.338676,118.163094 
	C132.206467,111.771767 145.962677,105.138969 159.795197,98.670288 
	C168.323227,94.682228 176.902924,90.803055 185.494293,86.952805 
	C189.655472,85.087944 195.249771,87.513359 197.568024,92.031853 
	C199.550385,95.895607 198.062393,102.011345 194.136292,103.915680 
	C180.727615,110.419464 167.202515,116.683640 153.708908,123.011681 
	C145.494888,126.863777 137.262665,130.677200 129.027771,134.484543 
	C124.763618,136.456039 120.580688,138.686523 116.152634,140.183441 
	C114.074486,140.885971 111.280464,140.715302 109.199547,139.921463 
	C103.900238,137.899857 98.819763,135.304611 93.333496,132.722931 
z"/>
<path fill="#9837FF" opacity="1.000000" stroke="none" 
	d="
M193.330612,158.727692 
	C200.868073,163.840881 199.096878,172.868530 192.457901,175.942932 
	C168.614838,186.984299 144.700455,197.901276 121.209488,209.657486 
	C112.895157,213.818451 106.796326,210.071442 100.197624,206.984924 
	C79.855003,197.469711 59.626907,187.709839 39.336876,178.081757 
	C37.440525,177.181870 35.297794,176.760635 33.481995,175.739304 
	C28.470116,172.920227 26.566563,167.175430 28.878286,162.461334 
	C31.072094,157.987701 36.916378,156.297714 42.266529,158.694107 
	C47.582825,161.075348 52.871155,163.521317 58.137409,166.011520 
	C75.569862,174.254654 92.963509,182.580750 110.452698,190.701309 
	C111.897682,191.372253 114.216972,191.304977 115.680061,190.619827 
	C136.602615,180.822067 157.423218,170.806778 178.330521,160.976074 
	C182.924820,158.815796 187.617630,156.300079 193.330612,158.727692 
z"/>
<path fill="#9837FF" opacity="1.000000" stroke="none" 
	d="
M194.078186,123.609863 
	C200.185104,128.889404 200.151550,136.734222 191.778214,140.644272 
	C166.947021,152.239578 142.123810,163.855286 117.150696,175.138184 
	C114.683304,176.252960 110.826080,176.014404 108.264709,174.903503 
	C96.481819,169.793076 84.935509,164.138077 73.293709,158.701187 
	C59.900139,152.446198 46.507153,146.189682 33.088959,139.987839 
	C28.617306,137.921066 26.690115,132.341919 28.903009,127.441803 
	C31.249920,122.244942 35.938122,120.431160 41.302555,122.792656 
	C46.790058,125.208336 52.242928,127.706413 57.667267,130.261185 
	C75.120926,138.481567 92.499794,146.865295 110.070618,154.826019 
	C112.077454,155.735214 115.394753,154.978302 117.630386,153.956650 
	C131.833786,147.465790 145.889969,140.653641 160.023560,134.008835 
	C167.815292,130.345596 175.524368,126.435043 183.557755,123.394371 
	C186.555756,122.259613 190.369980,123.281342 194.078186,123.609863 
z"/>
<path fill="#000000" opacity="1.000000" stroke="none" 
	d="
M138.700867,47.284363 
	C147.956070,51.676388 156.896210,55.848186 166.192795,60.186310 
	C159.652130,63.205109 153.656708,65.952805 147.677826,68.736000 
	C136.773926,73.811821 125.909859,78.975380 114.943710,83.912514 
	C113.570381,84.530807 111.427711,84.544983 110.067894,83.916519 
	C97.415176,78.068855 84.869843,71.989418 72.260635,66.046654 
	C68.630234,64.335625 64.893791,62.849613 59.924679,60.708302 
	C65.250275,58.005371 69.393791,55.751598 73.661613,53.764858 
	C85.997482,48.022335 98.350777,42.313641 110.791069,36.803532 
	C112.341286,36.116905 114.708031,36.126060 116.267143,36.802406 
	C123.721153,40.035980 131.027161,43.610699 138.700867,47.284363 
z"/>
</svg>